<?xml version="1.0" encoding="UTF-8"?>
<svg width="168px" height="168px" viewBox="0 0 168 168" version="1.1" xmlns="http://www.w3.org/2000/svg" xmlns:xlink="http://www.w3.org/1999/xlink">
    <!-- Generator: sketchtool 47.1 (45422) - http://www.bohemiancoding.com/sketch -->
    <title>E42F4A83-1263-4D97-ACA6-6A63BA13BB1D</title>
    <desc>Created with sketchtool.</desc>
    <defs>
        <linearGradient x1="1.16743491e-14%" y1="-4.4408921e-14%" x2="100%" y2="100%" id="linearGradient-1">
            <stop stop-color="#57CA85" offset="0%"></stop>
            <stop stop-color="#194F68" offset="100%"></stop>
        </linearGradient>
    </defs>
    <g id="Page-1" stroke="none" stroke-width="1" fill="none" fill-rule="evenodd">
        <g id="АТОТ-LP-1440" transform="translate(-1057.000000, -7221.000000)">
            <g id="Stage" transform="translate(0.000000, 6672.000000)">
                <g id="1,2,3" transform="translate(0.000000, 573.000000)">
                    <g id="book-open-big" transform="translate(1081.000000, 0.000000)">
                        <g id="artboard-big">
                            <circle id="Oval" fill="#FFFFFF" cx="60" cy="60" r="60"></circle>
                            <circle id="Oval" stroke="#E1E1E1" fill="#FFFFFF" cx="60" cy="60" r="40"></circle>
                            <g id="book-open" transform="translate(36.000000, 41.000000)" fill-rule="nonzero" fill="url(#linearGradient-1)">
                                <path d="M22,6.6691527 L8.71554176,4.25379666 C8.47944604,4.21087016 8.2399664,4.1892763 8,4.1892763 C5.790861,4.1892763 4,5.9801373 4,8.1892763 L4,27.9925418 C4,29.9256864 5.38249546,31.5822102 7.28445824,31.9280216 L22,34.6035746 L22,6.6691527 Z M26,6.6691527 L26,34.6035746 L40.7155418,31.9280216 C42.6175046,31.5822102 44,29.9256864 44,27.9925418 L44,8.1892763 C44,7.9493099 43.9784062,7.70983028 43.9354796,7.47373454 C43.5402968,5.30022916 41.4579636,3.85861386 39.2844582,4.25379666 L26,6.6691527 Z M9.4310835,0.31831702 L23.2844582,2.83711242 C23.7576076,2.92313958 24.2423924,2.92313958 24.7155418,2.83711242 L38.5689164,0.31831702 C42.9159272,-0.47204858 47.0805936,2.41118202 47.8709592,6.7581928 C47.9568122,7.23038424 48,7.7093435 48,8.1892763 L48,27.9925418 C48,31.858831 45.235009,35.1718784 41.4310836,35.8635012 L25.4310836,38.772592 C24.4847848,38.9446464 23.5152152,38.9446464 22.5689164,38.772592 L6.5689165,35.8635012 C2.76499092,35.1718784 -1.18423789e-15,31.858831 0,27.9925418 L0,8.1892763 C-5.92118946e-16,3.7709983 3.581722,0.1892763 8,0.1892763 C8.4799328,0.1892763 8.95889206,0.23246404 9.4310835,0.31831702 Z" id="shape"></path>
                            </g>
                        </g>
                    </g>
                </g>
            </g>
        </g>
    </g>
</svg>