<?xml version="1.0" encoding="UTF-8"?>
<svg width="36px" height="44px" viewBox="0 0 36 44" version="1.1" xmlns="http://www.w3.org/2000/svg" xmlns:xlink="http://www.w3.org/1999/xlink">
    <!-- Generator: sketchtool 47.1 (45422) - http://www.bohemiancoding.com/sketch -->
    <title>1B885AC8-335E-4C8B-8011-B586B05B4AC5</title>
    <desc>Created with sketchtool.</desc>
    <defs>
        <linearGradient x1="1.16743491e-14%" y1="-4.4408921e-14%" x2="100%" y2="100%" id="linearGradient-1">
            <stop stop-color="#57CA85" offset="0%"></stop>
            <stop stop-color="#194F68" offset="100%"></stop>
        </linearGradient>
    </defs>
    <g id="Page-1" stroke="none" stroke-width="1" fill="none" fill-rule="evenodd">
        <g id="АТОТ-LP-1440" transform="translate(-422.000000, -8692.000000)" fill="url(#linearGradient-1)">
            <g id="Icon" transform="translate(110.000000, 8242.000000)">
                <g transform="translate(0.000000, 188.000000)" id="calculator">
                    <g transform="translate(312.000000, 262.000000)">
                        <g id="shape">
                            <path d="M8,0 L28,0 C32.418278,0 36,3.581722 36,8 L36,36 C36,40.418278 32.418278,44 28,44 L8,44 C3.581722,44 0,40.418278 0,36 L0,8 C0,3.581722 3.581722,0 8,0 Z M8,4 C5.790861,4 4,5.790861 4,8 L4,36 C4,38.209139 5.790861,40 8,40 L28,40 C30.209139,40 32,38.209139 32,36 L32,8 C32,5.790861 30.209139,4 28,4 L8,4 Z M11,6 L25,6 C27.7614238,6 30,8.23857626 30,11 C30,13.7614237 27.7614238,16 25,16 L11,16 C8.23857626,16 6,13.7614237 6,11 C6,8.23857626 8.23857626,6 11,6 Z M11,10 C10.4477153,10 10,10.4477153 10,11 C10,11.5522847 10.4477153,12 11,12 L25,12 C25.5522848,12 26,11.5522847 26,11 C26,10.4477153 25.5522848,10 25,10 L11,10 Z M10,24 C8.8954305,24 8,23.1045694 8,22 C8,20.8954306 8.8954305,20 10,20 C11.1045695,20 12,20.8954306 12,22 C12,23.1045694 11.1045695,24 10,24 Z M10,30 C8.8954305,30 8,29.1045694 8,28 C8,26.8954306 8.8954305,26 10,26 C11.1045695,26 12,26.8954306 12,28 C12,29.1045694 11.1045695,30 10,30 Z M18,24 C16.8954306,24 16,23.1045694 16,22 C16,20.8954306 16.8954306,20 18,20 C19.1045694,20 20,20.8954306 20,22 C20,23.1045694 19.1045694,24 18,24 Z M18,30 C16.8954306,30 16,29.1045694 16,28 C16,26.8954306 16.8954306,26 18,26 C19.1045694,26 20,26.8954306 20,28 C20,29.1045694 19.1045694,30 18,30 Z M26,24 C24.8954306,24 24,23.1045694 24,22 C24,20.8954306 24.8954306,20 26,20 C27.1045694,20 28,20.8954306 28,22 C28,23.1045694 27.1045694,24 26,24 Z M26,36 C24.8954306,36 24,35.1045694 24,34 C24,32.8954306 24.8954306,32 26,32 C27.1045694,32 28,32.8954306 28,34 C28,35.1045694 27.1045694,36 26,36 Z M18,36 C16.8954306,36 16,35.1045694 16,34 C16,32.8954306 16.8954306,32 18,32 C19.1045694,32 20,32.8954306 20,34 C20,35.1045694 19.1045694,36 18,36 Z M10,36 C8.8954305,36 8,35.1045694 8,34 C8,32.8954306 8.8954305,32 10,32 C11.1045695,32 12,32.8954306 12,34 C12,35.1045694 11.1045695,36 10,36 Z M26,30 C24.8954306,30 24,29.1045694 24,28 C24,26.8954306 24.8954306,26 26,26 C27.1045694,26 28,26.8954306 28,28 C28,29.1045694 27.1045694,30 26,30 Z" fill-rule="nonzero"></path>
                        </g>
                    </g>
                </g>
            </g>
        </g>
    </g>
</svg>