<?xml version="1.0" encoding="UTF-8"?>
<svg width="168px" height="168px" viewBox="0 0 168 168" version="1.1" xmlns="http://www.w3.org/2000/svg" xmlns:xlink="http://www.w3.org/1999/xlink">
    <!-- Generator: sketchtool 47.1 (45422) - http://www.bohemiancoding.com/sketch -->
    <title>31895C86-FB1E-4363-96E5-D74C72042B20</title>
    <desc>Created with sketchtool.</desc>
    <defs>
        <linearGradient x1="1.16743491e-14%" y1="-4.4408921e-14%" x2="100%" y2="100%" id="linearGradient-1">
            <stop stop-color="#57CA85" offset="0%"></stop>
            <stop stop-color="#194F68" offset="100%"></stop>
        </linearGradient>
    </defs>
    <g id="Page-1" stroke="none" stroke-width="1" fill="none" fill-rule="evenodd">
        <g id="АТОТ-LP-1440" transform="translate(-216.000000, -7221.000000)">
            <g id="Stage" transform="translate(0.000000, 6672.000000)">
                <g id="1,2,3" transform="translate(0.000000, 573.000000)">
                    <g id="key-big" transform="translate(240.000000, 0.000000)">
                        <g>
                            <circle id="Oval" fill="#FFFFFF" cx="60" cy="60" r="60"></circle>
                            <circle id="Oval" stroke="#E1E1E1" fill="#FFFFFF" cx="60" cy="60" r="40"></circle>
                            <g id="key" transform="translate(39.000000, 38.000000)" fill-rule="nonzero" fill="url(#linearGradient-1)">
                                <path d="M10.429399,13.4636854 C10.429399,10.0548662 12.0483986,6.91303638 14.7357929,4.92347775 C16.5494175,3.58079706 18.7457111,2.84368549 21.0493989,2.84368549 C26.9146629,2.84368549 31.6693988,7.59842139 31.6693988,13.4636854 C31.6693988,17.626958 29.2517094,21.3304391 25.6008275,23.0617318 L25.6008275,34.7036852 C25.6008275,38.0552646 22.8838355,40.7722566 19.5322561,40.7722566 L14.9808275,40.7722566 C14.1429327,40.7722566 13.4636847,40.0930085 13.4636847,39.2551137 L13.4636847,27.117971 C13.4636847,26.2800761 14.1429327,25.6008281 14.9808275,25.6008281 L16.4979704,25.6008281 L16.4979704,23.0617318 C12.8470884,21.3304391 10.429399,17.626958 10.429399,13.4636854 Z M19.5322561,37.7379709 C21.2080458,37.7379709 22.5665418,36.3794749 22.5665418,34.7036852 L22.5665418,22.0485726 C22.5665418,21.4055817 22.9718653,20.8324239 23.5781027,20.6181498 C26.5839685,19.5557286 28.6351131,16.7045286 28.6351131,13.4636854 C28.6351131,9.2742111 25.2388731,5.87797117 21.0493989,5.87797117 C19.4013629,5.87797117 17.8367275,6.40308809 16.5412365,7.36217886 C14.6187337,8.78546535 13.4636847,11.0269529 13.4636847,13.4636854 C13.4636847,16.7045286 15.5148293,19.5557286 18.5206952,20.6181498 C19.1269326,20.8324239 19.5322561,21.4055817 19.5322561,22.0485726 L19.5322561,27.117971 C19.5322561,27.9558658 18.853008,28.6351138 18.0151133,28.6351138 L16.4979704,28.6351138 L16.4979704,31.6693995 L18.0151133,31.6693995 L18.0151133,34.7036852 L16.4979704,34.7036852 L16.4979704,37.7379709 L19.5322561,37.7379709 Z M21.0493989,18.0643992 C18.5084948,18.0643992 16.4486851,16.0045894 16.4486851,13.4636854 C16.4486851,10.9227813 18.5084948,8.86297158 21.0493989,8.86297158 C23.5903029,8.86297158 25.6501126,10.9227813 25.6501126,13.4636854 C25.6501126,16.0045894 23.5903029,18.0643992 21.0493989,18.0643992 Z M21.0493989,15.0301135 C21.9145132,15.0301135 22.6158269,14.3287997 22.6158269,13.4636854 C22.6158269,12.598571 21.9145132,11.8972573 21.0493989,11.8972573 C20.1842845,11.8972573 19.4829708,12.598571 19.4829708,13.4636854 C19.4829708,14.3287997 20.1842845,15.0301135 21.0493989,15.0301135 Z" id="shape" transform="translate(21.049399, 21.807971) rotate(-45.000000) translate(-21.049399, -21.807971) "></path>
                            </g>
                        </g>
                    </g>
                </g>
            </g>
        </g>
    </g>
</svg>