<?xml version="1.0" encoding="UTF-8"?>
<svg width="44px" height="44px" viewBox="0 0 44 44" version="1.1" xmlns="http://www.w3.org/2000/svg" xmlns:xlink="http://www.w3.org/1999/xlink">
    <!-- Generator: sketchtool 47.1 (45422) - http://www.bohemiancoding.com/sketch -->
    <title>C4874F8F-917C-4551-B725-C615D6C9529E</title>
    <desc>Created with sketchtool.</desc>
    <defs>
        <linearGradient x1="1.16743491e-14%" y1="-4.4408921e-14%" x2="100%" y2="100%" id="linearGradient-1">
            <stop stop-color="#57CA85" offset="0%"></stop>
            <stop stop-color="#194F68" offset="100%"></stop>
        </linearGradient>
    </defs>
    <g id="Symbols" stroke="none" stroke-width="1" fill="none" fill-rule="evenodd">
        <g id="message-text" fill-rule="nonzero" fill="url(#linearGradient-1)">
            <g transform="translate(1.000000, 1.000000)" id="shape">
                <path d="M29.0387268,40.405867 C26.5116954,41.4537314 23.7922078,42 21,42 C9.40202026,42 0,32.5979798 0,21 C0,9.40202026 9.40202026,0 21,0 C32.5979798,0 42,9.40202026 42,21 C42,23.7922078 41.4537314,26.5116954 40.405867,29.0387268 C40.0127982,29.9866522 39.550792,30.903302 39.0242602,31.7818078 L41.8701984,39.2912278 C42.4810488,40.9030452 40.9030452,42.4810488 39.2912278,41.8701984 L31.7818078,39.0242602 C30.903302,39.550792 29.9866522,40.0127982 29.0387268,40.405867 Z M34.9297962,32.2650942 C34.700488,31.660031 34.7780732,30.9814154 35.1380312,30.4437222 C35.7572574,29.5187436 36.2843978,28.535217 36.7109352,27.5065784 C37.5582714,25.4631412 38,23.2640846 38,21 C38,11.6111593 30.3888408,4 21,4 C11.6111593,4 4,11.6111593 4,21 C4,30.3888408 11.6111593,38 21,38 C23.2640846,38 25.4631412,37.5582714 27.5065784,36.7109352 C28.535217,36.2843978 29.5187436,35.7572574 30.4437222,35.1380312 C30.9814154,34.7780732 31.660031,34.700488 32.2650942,34.9297962 L36.5559582,36.5559582 L34.9297962,32.2650942 Z M26,11 C27.1045694,11 28,11.8954305 28,13 C28,14.1045695 27.1045694,15 26,15 L16,15 C14.8954305,15 14,14.1045695 14,13 C14,11.8954305 14.8954305,11 16,11 L26,11 Z M29,19 C30.1045694,19 31,19.8954306 31,21 C31,22.1045694 30.1045694,23 29,23 L13,23 C11.8954305,23 11,22.1045694 11,21 C11,19.8954306 11.8954305,19 13,19 L29,19 Z M26,27 C27.1045694,27 28,27.8954306 28,29 C28,30.1045694 27.1045694,31 26,31 L16,31 C14.8954305,31 14,30.1045694 14,29 C14,27.8954306 14.8954305,27 16,27 L26,27 Z"></path>
            </g>
        </g>
    </g>
</svg>