<?xml version="1.0" encoding="UTF-8"?>
<svg width="44px" height="44px" viewBox="0 0 44 44" version="1.1" xmlns="http://www.w3.org/2000/svg" xmlns:xlink="http://www.w3.org/1999/xlink">
    <!-- Generator: sketchtool 47.1 (45422) - http://www.bohemiancoding.com/sketch -->
    <title>F5293E26-E3AE-4D32-A586-3277004C9814</title>
    <desc>Created with sketchtool.</desc>
    <defs>
        <linearGradient x1="1.16743491e-14%" y1="-4.4408921e-14%" x2="100%" y2="100%" id="linearGradient-1">
            <stop stop-color="#57CA85" offset="0%"></stop>
            <stop stop-color="#194F68" offset="100%"></stop>
        </linearGradient>
    </defs>
    <g id="Page-1" stroke="none" stroke-width="1" fill="none" fill-rule="evenodd">
        <g id="АТОТ-LP-1440" transform="translate(-425.000000, -8430.000000)" fill="url(#linearGradient-1)">
            <g id="Icon" transform="translate(110.000000, 8242.000000)">
                <g transform="translate(0.000000, 188.000000)" id="time">
                    <g transform="translate(315.000000, 0.000000)">
                        <g id="shape">
                            <path d="M22,44 C9.8497355,44 0,34.1502644 0,22 C0,9.8497355 9.8497355,0 22,0 C34.1502644,0 44,9.8497355 44,22 C44,34.1502644 34.1502644,44 22,44 Z M22,40 C31.9411254,40 40,31.9411254 40,22 C40,12.0588745 31.9411254,4 22,4 C12.0588745,4 4,12.0588745 4,22 C4,31.9411254 12.0588745,40 22,40 Z M24,10 L24,21.0218324 L32.2278812,27.4212956 C33.0997756,28.0994356 33.2568446,29.3559868 32.5787044,30.2278812 C31.9005644,31.0997756 30.6440132,31.2568446 29.7721188,30.5787044 L20.7721188,23.5787044 C20.2849456,23.199792 20,22.6171808 20,22 L20,10 C20,8.8954305 20.8954306,8 22,8 C23.1045694,8 24,8.8954305 24,10 Z" fill-rule="nonzero"></path>
                        </g>
                    </g>
                </g>
            </g>
        </g>
    </g>
</svg>